# xmcd CD database file
#
# Track frame offsets:
#	150
#	20042
#	40862
#	70932
#	93592
#	120342
#	145950
#	176830
#
# Disc length: 2613 seconds
#
# Revision: 2
# Processed by: cddbd v1.5.2PL0 Copyright (c) Steve Scherf et al.
# Submitted via: CDex 1.70beta3
#
DISCID=6e0a3308
DTITLE=CM NETWORK - CM NETWORK
DYEAR=1990
DGENRE=JPop
TTITLE0=CM DISCO NOW ～24時間みてますか～
TTITLE1=CM DISCO THEN ～24時間みてますか～
TTITLE2=CM DISCO NOW ～CM選択の自由アハハーン～
TTITLE3=CM DISCO THEN ～CM選択の自由アハハーン～
TTITLE4=二人のお風呂(BAIK-BAIK MANDI MIX)
TTITLE5=CM DISCO NOW ～唄って踊ってダイジョーV～
TTITLE6=CM DISCO THEN ～唄って踊ってダイジョーV～
TTITLE7=ちちんVVの唄(ディスコ・バージョン)
EXTD=YEAR: 1990
EXTT0=
EXTT1=
EXTT2=
EXTT3=
EXTT4=
EXTT5=
EXTT6=
EXTT7=
PLAYORDER=
